<svg xmlns="http://www.w3.org/2000/svg" xml:space="preserve" width="1113.5483" height="500.00003" viewBox="0 0 1113.5483 500.00003"><defs><clipPath id="a" clipPathUnits="userSpaceOnUse"><path d="M0 595.28h841.89V0H0Z"/></clipPath></defs><path d="m0 0-77.079 75.05V0h-30.63v153.708h30.63V80.233l75.455 73.475h41.583l-79.107-74.602L42.19 0Z" style="fill:#293d9b;fill-opacity:1;fill-rule:nonzero;stroke:none" transform="matrix(1.7251 0 0 -1.7251 186.111 494.166)"/><g clip-path="url(#a)" transform="matrix(1.7251 0 0 -1.7251 -169.395 763.456)"><path d="M0 0c-3.246 0-6.254.564-9.026 1.691-2.773 1.127-5.375 2.966-7.808 5.523l-100.813 105.475V3.382h-28.599v142.889c0 4.807 1.52 8.373 4.563 10.706 3.043 2.326 6.998 3.492 11.868 3.492 3.513 0 6.419-.529 8.72-1.577 2.299-1.054 4.191-2.405 5.68-4.057L-13.792 45.978V157.09h29.207V14.199c0-5.109-1.419-8.754-4.256-10.93C8.317 1.093 4.596 0 0 0" style="fill:#293d9b;fill-opacity:1;fill-rule:nonzero;stroke:none" transform="translate(558.38 152.72)"/><path d="M0 0c37.539 31.542 139.461 77.726 322.063 77.726 184.317 0 286.478-46.53 323.121-77.644v51.459c0 3.928-1.739 7.647-4.747 9.788-50.052 35.61-151.787 68.578-318.374 68.578-165.335 0-266.828-33.128-317.278-68.718C1.754 59.052 0 55.318 0 51.373Z" style="fill:#f68712;fill-opacity:1;fill-rule:nonzero;stroke:none" transform="translate(98.195 312.653)"/><path d="M0 0v25.881c0 17.472-14.066 31.636-31.418 31.636h-78.839c-6.8 0-12.312 5.551-12.312 12.399V85.13c0 6.848 5.512 12.399 12.312 12.399H0V122.1h-122.569c-17.352 0-31.417-14.164-31.417-31.637v-25.88c0-17.473 14.065-31.637 31.417-31.637h78.839c6.799 0 12.312-5.551 12.312-12.398V5.333c0-6.848-5.513-12.398-12.312-12.398h-110.256v-24.572h122.568C-14.066-31.637 0-17.473 0 0" style="fill:#293d9b;fill-opacity:1;fill-rule:nonzero;stroke:none" transform="translate(402.256 187.738)"/><path d="M0 0v-112.072c0-6.848-5.513-12.399-12.313-12.399h-17.04v-29.237H0c17.351 0 31.417 14.164 31.417 31.637V0Z" style="fill:#293d9b;fill-opacity:1;fill-rule:nonzero;stroke:none" transform="translate(712.279 309.81)"/><path d="M0 0v-122.071c0-17.473 14.065-31.637 31.417-31.637h29.352v29.237h-17.04c-6.799 0-12.312 5.551-12.312 12.399V0Z" style="fill:#293d9b;fill-opacity:1;fill-rule:nonzero;stroke:none" transform="translate(586.09 309.81)"/><path d="M688.087 156.102h-46.39v29.237h46.39z" style="fill:#293d9b;fill-opacity:1;fill-rule:nonzero;stroke:none"/></g></svg>